
<svg xmlns="http://www.w3.org/2000/svg" width="512" height="512" viewBox="0 0 512 512" version="1.1"><path d="M 38.241 215.750 L 38.500 431.500 41.199 437.261 C 52.789 461.991, 87.945 482.898, 140.500 496.313 C 165.144 502.604, 191.253 506.762, 219.950 508.967 C 237.268 510.297, 282.732 510.297, 300.050 508.967 C 391.691 501.926, 461.648 473.863, 478.801 437.261 L 481.500 431.500 481.759 215.750 L 482.018 -0 260 -0 L 37.982 0 38.241 215.750 M 65.240 221.750 L 65.500 414.500 68.850 420.676 C 84.225 449.022, 138.293 470.444, 214 478.184 C 230.437 479.865, 286.563 479.865, 303 478.184 C 378.652 470.449, 432.767 449.050, 448.076 420.816 L 451.500 414.500 451.760 221.750 L 452.020 29 258.500 29 L 64.980 29 65.240 221.750 M 114 92.838 L 114 104.786 129.250 105.158 C 142.796 105.488, 145.038 105.793, 149.316 107.886 C 155.168 110.749, 158.320 115.235, 160.638 124 C 162.193 129.881, 162.393 139.742, 162.741 227.500 C 163.122 323.823, 162.617 345.445, 159.775 354.482 C 158.114 359.761, 151.527 366.477, 146.500 368.016 C 144.300 368.689, 136.088 369.461, 128.250 369.731 L 114 370.222 114 382.111 L 114 394 200 394 L 286 394 286 382.124 L 286 370.248 271.250 369.789 C 250.755 369.151, 245.392 366.561, 240.766 355.066 C 238.565 349.599, 238.520 348.601, 238.203 299.111 L 237.881 248.723 244.691 249.212 C 256.716 250.075, 262.266 254.569, 270.361 270 C 272.236 273.575, 280.393 294.275, 288.487 316 C 296.580 337.725, 304.843 358.650, 306.847 362.500 C 311.822 372.055, 320.671 380.752, 330.105 385.359 C 343.959 392.124, 356.032 394, 385.724 394 L 406 394 406 382.140 L 406 370.280 400.453 369.707 C 391.015 368.733, 382.109 362.437, 377.245 353.301 C 375.546 350.111, 365.743 325.675, 355.462 299 C 345.180 272.325, 335.716 248.419, 334.430 245.875 C 333.145 243.332, 330.055 239.282, 327.563 236.875 C 325.072 234.469, 323.026 232.009, 323.017 231.409 C 323.007 230.809, 327.613 227.599, 333.250 224.275 C 352.466 212.948, 360.693 205.464, 366.468 194.059 C 374.489 178.220, 375.694 154.747, 369.490 135.188 C 366.002 124.192, 360.668 115.674, 351.500 106.460 C 338.726 93.623, 325.053 87.489, 300 83.358 C 290.744 81.832, 279.100 81.583, 201.750 81.259 L 114 80.890 114 92.838 M 238 165.129 L 238 219.258 248.250 218.555 C 253.887 218.168, 260.525 217.368, 263 216.776 C 270.223 215.050, 278.254 210.533, 282.724 205.684 C 291.768 195.872, 295.322 184.253, 295.321 164.500 C 295.320 144.641, 291.369 132.274, 282.049 122.953 C 273.732 114.636, 263.055 111, 246.951 111 L 238 111 238 165.129" stroke="none" fill="#bb9868" fill-rule="evenodd"/><path d="M 65.240 221.750 L 65.500 414.500 68.850 420.676 C 84.225 449.022, 138.293 470.444, 214 478.184 C 230.437 479.865, 286.563 479.865, 303 478.184 C 378.652 470.449, 432.767 449.050, 448.076 420.816 L 451.500 414.500 451.760 221.750 L 452.020 29 258.500 29 L 64.980 29 65.240 221.750 M 114 92.838 L 114 104.786 129.250 105.158 C 142.796 105.488, 145.038 105.793, 149.316 107.886 C 155.168 110.749, 158.320 115.235, 160.638 124 C 162.193 129.881, 162.393 139.742, 162.741 227.500 C 163.122 323.823, 162.617 345.445, 159.775 354.482 C 158.114 359.761, 151.527 366.477, 146.500 368.016 C 144.300 368.689, 136.088 369.461, 128.250 369.731 L 114 370.222 114 382.111 L 114 394 200 394 L 286 394 286 382.124 L 286 370.248 271.250 369.789 C 250.755 369.151, 245.392 366.561, 240.766 355.066 C 238.565 349.599, 238.520 348.601, 238.203 299.111 L 237.881 248.723 244.691 249.212 C 256.716 250.075, 262.266 254.569, 270.361 270 C 272.236 273.575, 280.393 294.275, 288.487 316 C 296.580 337.725, 304.843 358.650, 306.847 362.500 C 311.822 372.055, 320.671 380.752, 330.105 385.359 C 343.959 392.124, 356.032 394, 385.724 394 L 406 394 406 382.140 L 406 370.280 400.453 369.707 C 391.015 368.733, 382.109 362.437, 377.245 353.301 C 375.546 350.111, 365.743 325.675, 355.462 299 C 345.180 272.325, 335.716 248.419, 334.430 245.875 C 333.145 243.332, 330.055 239.282, 327.563 236.875 C 325.072 234.469, 323.026 232.009, 323.017 231.409 C 323.007 230.809, 327.613 227.599, 333.250 224.275 C 352.466 212.948, 360.693 205.464, 366.468 194.059 C 374.489 178.220, 375.694 154.747, 369.490 135.188 C 366.002 124.192, 360.668 115.674, 351.500 106.460 C 338.726 93.623, 325.053 87.489, 300 83.358 C 290.744 81.832, 279.100 81.583, 201.750 81.259 L 114 80.890 114 92.838 M 238 165.129 L 238 219.258 248.250 218.555 C 253.887 218.168, 260.525 217.368, 263 216.776 C 270.223 215.050, 278.254 210.533, 282.724 205.684 C 291.768 195.872, 295.322 184.253, 295.321 164.500 C 295.320 144.641, 291.369 132.274, 282.049 122.953 C 273.732 114.636, 263.055 111, 246.951 111 L 238 111 238 165.129" stroke="none" fill="#15273f" fill-rule="evenodd"/></svg>
